# xmcd CD database file
#
# Track frame offsets:
#	150
#	15243
#	32795
#	55758
#	72244
#	92975
#	113065
#	130692
#	142051
#	157545
#	178261
#
# Disc length: 2542 seconds
#
# Revision: 0
# Processed by: cddbd v1.5.2PL0 Copyright (c) Steve Scherf et al.
# Submitted via: CDex 1.51
#
DISCID=8a09ec0b
DTITLE=Poum Tchack - Billie
DYEAR=2011
DGENRE=Jazz
TTITLE0=Lover Come Back To Me (I)
TTITLE1=Trav'lin' All Alone
TTITLE2=Strange Boat
TTITLE3=I'll Never Fail You
TTITLE4=Love Is Here To Stay
TTITLE5=How Could You
TTITLE6=Lover Come Back To Me (II)
TTITLE7=Romance
TTITLE8=Ghost Of Yesterday
TTITLE9=Swingstone
TTITLE10=You Rascal You
EXTD=YEAR: 2011
EXTT0=
EXTT1=
EXTT2=
EXTT3=
EXTT4=
EXTT5=
EXTT6=
EXTT7=
EXTT8=
EXTT9=
EXTT10=
PLAYORDER=
